<svg width="209" height="36" viewBox="0 0 209 36" fill="none" xmlns="http://www.w3.org/2000/svg">
<g clip-path="url(#clip0_0_1)">
<g filter="url(#filter0_d_0_1)">
<path d="M2.15625 26V8.86719H5.78906V23H12.7383V26H2.15625ZM25.1325 12.6289C26.8903 12.6289 28.238 13.0117 29.1755 13.7773C30.113 14.543 30.5817 15.707 30.5817 17.2695V26H28.0856L27.3942 24.2188H27.3005C26.9255 24.6875 26.5427 25.0703 26.152 25.3672C25.7614 25.6641 25.3122 25.8828 24.8044 26.0234C24.2966 26.1641 23.6794 26.2344 22.9528 26.2344C22.1794 26.2344 21.4841 26.0859 20.8669 25.7891C20.2575 25.4922 19.777 25.0391 19.4255 24.4297C19.0739 23.8125 18.8981 23.0312 18.8981 22.0859C18.8981 20.6953 19.3864 19.6719 20.363 19.0156C21.3395 18.3516 22.8044 17.9844 24.7575 17.9141L27.0309 17.8438V17.2695C27.0309 16.582 26.8512 16.0781 26.4919 15.7578C26.1325 15.4375 25.6325 15.2773 24.9919 15.2773C24.3591 15.2773 23.738 15.3672 23.1286 15.5469C22.5192 15.7266 21.9098 15.9531 21.3005 16.2266L20.1169 13.8125C20.8122 13.4453 21.5895 13.1562 22.4489 12.9453C23.3161 12.7344 24.2106 12.6289 25.1325 12.6289ZM27.0309 19.9297L25.6481 19.9766C24.4919 20.0078 23.6872 20.2148 23.2341 20.5977C22.7887 20.9805 22.5661 21.4844 22.5661 22.1094C22.5661 22.6562 22.7262 23.0469 23.0466 23.2812C23.3669 23.5078 23.7848 23.6211 24.3005 23.6211C25.0661 23.6211 25.7106 23.3945 26.2341 22.9414C26.7653 22.4883 27.0309 21.8438 27.0309 21.0078V19.9297ZM41.2767 19.3086L37.058 12.8984H41.1127L43.6556 17.0703L46.222 12.8984H50.2767L46.0111 19.3086L50.4759 26H46.4095L43.6556 21.5117L40.89 26H36.8353L41.2767 19.3086ZM72.1748 12.6523C73.6592 12.6523 74.7803 13.0352 75.5381 13.8008C76.3037 14.5586 76.6866 15.7773 76.6866 17.457V26H73.1006V18.3477C73.1006 17.4102 72.9405 16.7031 72.6202 16.2266C72.2998 15.75 71.8037 15.5117 71.1319 15.5117C70.1866 15.5117 69.5147 15.8516 69.1162 16.5312C68.7178 17.2031 68.5186 18.168 68.5186 19.4258V26H64.9444V18.3477C64.9444 17.7227 64.8741 17.1992 64.7334 16.7773C64.5928 16.3555 64.378 16.0391 64.0889 15.8281C63.7998 15.6172 63.4287 15.5117 62.9756 15.5117C62.3116 15.5117 61.7881 15.6797 61.4053 16.0156C61.0303 16.3438 60.7608 16.832 60.5967 17.4805C60.4405 18.1211 60.3623 18.9062 60.3623 19.8359V26H56.7881V12.8984H59.5186L59.9991 14.5742H60.1983C60.4639 14.1211 60.7959 13.7539 61.1944 13.4727C61.6006 13.1914 62.0459 12.9844 62.5303 12.8516C63.0147 12.7188 63.5069 12.6523 64.0069 12.6523C64.9678 12.6523 65.7803 12.8086 66.4444 13.1211C67.1162 13.4336 67.6319 13.918 67.9912 14.5742H68.3077C68.6983 13.9023 69.2491 13.4141 69.96 13.1094C70.6787 12.8047 71.417 12.6523 72.1748 12.6523ZM88.2605 12.8984V26H84.6862V12.8984H88.2605ZM86.4792 7.76562C87.0105 7.76562 87.4675 7.89063 87.8503 8.14062C88.2331 8.38281 88.4245 8.83984 88.4245 9.51172C88.4245 10.1758 88.2331 10.6367 87.8503 10.8945C87.4675 11.1445 87.0105 11.2695 86.4792 11.2695C85.9402 11.2695 85.4792 11.1445 85.0964 10.8945C84.7214 10.6367 84.5339 10.1758 84.5339 9.51172C84.5339 8.83984 84.7214 8.38281 85.0964 8.14062C85.4792 7.89063 85.9402 7.76562 86.4792 7.76562ZM105.483 22.1094C105.483 23 105.272 23.7539 104.85 24.3711C104.436 24.9805 103.815 25.4453 102.987 25.7656C102.159 26.0781 101.127 26.2344 99.893 26.2344C98.9789 26.2344 98.1937 26.1758 97.5375 26.0586C96.8891 25.9414 96.2328 25.7461 95.5687 25.4727V22.5195C96.2797 22.8398 97.0414 23.1055 97.8539 23.3164C98.6742 23.5195 99.393 23.6211 100.01 23.6211C100.705 23.6211 101.202 23.5195 101.498 23.3164C101.803 23.1055 101.955 22.832 101.955 22.4961C101.955 22.2773 101.893 22.082 101.768 21.9102C101.651 21.7305 101.393 21.5312 100.995 21.3125C100.596 21.0859 99.9711 20.793 99.1195 20.4336C98.2992 20.0898 97.6234 19.7422 97.0922 19.3906C96.5687 19.0391 96.1781 18.625 95.9203 18.1484C95.6703 17.6641 95.5453 17.0508 95.5453 16.3086C95.5453 15.0977 96.0141 14.1875 96.9516 13.5781C97.8969 12.9609 99.1586 12.6523 100.737 12.6523C101.549 12.6523 102.323 12.7344 103.057 12.8984C103.799 13.0625 104.561 13.3242 105.342 13.6836L104.264 16.2617C103.616 15.9805 103.002 15.75 102.424 15.5703C101.854 15.3906 101.272 15.3008 100.678 15.3008C100.155 15.3008 99.7602 15.3711 99.4945 15.5117C99.2289 15.6523 99.0961 15.8672 99.0961 16.1562C99.0961 16.3672 99.1625 16.5547 99.2953 16.7188C99.4359 16.8828 99.7016 17.0664 100.092 17.2695C100.491 17.4648 101.073 17.7188 101.838 18.0312C102.58 18.3359 103.225 18.6562 103.772 18.9922C104.319 19.3203 104.741 19.7305 105.037 20.2227C105.334 20.707 105.483 21.3359 105.483 22.1094ZM116.166 7.76562V11.4805C116.166 12.1289 116.143 12.7461 116.096 13.332C116.057 13.918 116.025 14.332 116.002 14.5742H116.19C116.471 14.1211 116.803 13.7539 117.186 13.4727C117.576 13.1914 118.006 12.9844 118.475 12.8516C118.943 12.7188 119.447 12.6523 119.986 12.6523C120.932 12.6523 121.756 12.8203 122.459 13.1562C123.162 13.4844 123.709 14.0039 124.1 14.7148C124.49 15.418 124.686 16.332 124.686 17.457V26H121.111V18.3477C121.111 17.4102 120.94 16.7031 120.596 16.2266C120.252 15.75 119.721 15.5117 119.002 15.5117C118.283 15.5117 117.717 15.6797 117.303 16.0156C116.889 16.3438 116.596 16.832 116.424 17.4805C116.252 18.1211 116.166 18.9062 116.166 19.8359V26H112.592V7.76562H116.166Z" fill="#F0E790"/>
<path d="M2.15625 26V8.86719H5.78906V23H12.7383V26H2.15625ZM25.1325 12.6289C26.8903 12.6289 28.238 13.0117 29.1755 13.7773C30.113 14.543 30.5817 15.707 30.5817 17.2695V26H28.0856L27.3942 24.2188H27.3005C26.9255 24.6875 26.5427 25.0703 26.152 25.3672C25.7614 25.6641 25.3122 25.8828 24.8044 26.0234C24.2966 26.1641 23.6794 26.2344 22.9528 26.2344C22.1794 26.2344 21.4841 26.0859 20.8669 25.7891C20.2575 25.4922 19.777 25.0391 19.4255 24.4297C19.0739 23.8125 18.8981 23.0312 18.8981 22.0859C18.8981 20.6953 19.3864 19.6719 20.363 19.0156C21.3395 18.3516 22.8044 17.9844 24.7575 17.9141L27.0309 17.8438V17.2695C27.0309 16.582 26.8512 16.0781 26.4919 15.7578C26.1325 15.4375 25.6325 15.2773 24.9919 15.2773C24.3591 15.2773 23.738 15.3672 23.1286 15.5469C22.5192 15.7266 21.9098 15.9531 21.3005 16.2266L20.1169 13.8125C20.8122 13.4453 21.5895 13.1562 22.4489 12.9453C23.3161 12.7344 24.2106 12.6289 25.1325 12.6289ZM27.0309 19.9297L25.6481 19.9766C24.4919 20.0078 23.6872 20.2148 23.2341 20.5977C22.7887 20.9805 22.5661 21.4844 22.5661 22.1094C22.5661 22.6562 22.7262 23.0469 23.0466 23.2812C23.3669 23.5078 23.7848 23.6211 24.3005 23.6211C25.0661 23.6211 25.7106 23.3945 26.2341 22.9414C26.7653 22.4883 27.0309 21.8438 27.0309 21.0078V19.9297ZM41.2767 19.3086L37.058 12.8984H41.1127L43.6556 17.0703L46.222 12.8984H50.2767L46.0111 19.3086L50.4759 26H46.4095L43.6556 21.5117L40.89 26H36.8353L41.2767 19.3086ZM72.1748 12.6523C73.6592 12.6523 74.7803 13.0352 75.5381 13.8008C76.3037 14.5586 76.6866 15.7773 76.6866 17.457V26H73.1006V18.3477C73.1006 17.4102 72.9405 16.7031 72.6202 16.2266C72.2998 15.75 71.8037 15.5117 71.1319 15.5117C70.1866 15.5117 69.5147 15.8516 69.1162 16.5312C68.7178 17.2031 68.5186 18.168 68.5186 19.4258V26H64.9444V18.3477C64.9444 17.7227 64.8741 17.1992 64.7334 16.7773C64.5928 16.3555 64.378 16.0391 64.0889 15.8281C63.7998 15.6172 63.4287 15.5117 62.9756 15.5117C62.3116 15.5117 61.7881 15.6797 61.4053 16.0156C61.0303 16.3438 60.7608 16.832 60.5967 17.4805C60.4405 18.1211 60.3623 18.9062 60.3623 19.8359V26H56.7881V12.8984H59.5186L59.9991 14.5742H60.1983C60.4639 14.1211 60.7959 13.7539 61.1944 13.4727C61.6006 13.1914 62.0459 12.9844 62.5303 12.8516C63.0147 12.7188 63.5069 12.6523 64.0069 12.6523C64.9678 12.6523 65.7803 12.8086 66.4444 13.1211C67.1162 13.4336 67.6319 13.918 67.9912 14.5742H68.3077C68.6983 13.9023 69.2491 13.4141 69.96 13.1094C70.6787 12.8047 71.417 12.6523 72.1748 12.6523ZM88.2605 12.8984V26H84.6862V12.8984H88.2605ZM86.4792 7.76562C87.0105 7.76562 87.4675 7.89063 87.8503 8.14062C88.2331 8.38281 88.4245 8.83984 88.4245 9.51172C88.4245 10.1758 88.2331 10.6367 87.8503 10.8945C87.4675 11.1445 87.0105 11.2695 86.4792 11.2695C85.9402 11.2695 85.4792 11.1445 85.0964 10.8945C84.7214 10.6367 84.5339 10.1758 84.5339 9.51172C84.5339 8.83984 84.7214 8.38281 85.0964 8.14062C85.4792 7.89063 85.9402 7.76562 86.4792 7.76562ZM105.483 22.1094C105.483 23 105.272 23.7539 104.85 24.3711C104.436 24.9805 103.815 25.4453 102.987 25.7656C102.159 26.0781 101.127 26.2344 99.893 26.2344C98.9789 26.2344 98.1937 26.1758 97.5375 26.0586C96.8891 25.9414 96.2328 25.7461 95.5687 25.4727V22.5195C96.2797 22.8398 97.0414 23.1055 97.8539 23.3164C98.6742 23.5195 99.393 23.6211 100.01 23.6211C100.705 23.6211 101.202 23.5195 101.498 23.3164C101.803 23.1055 101.955 22.832 101.955 22.4961C101.955 22.2773 101.893 22.082 101.768 21.9102C101.651 21.7305 101.393 21.5312 100.995 21.3125C100.596 21.0859 99.9711 20.793 99.1195 20.4336C98.2992 20.0898 97.6234 19.7422 97.0922 19.3906C96.5687 19.0391 96.1781 18.625 95.9203 18.1484C95.6703 17.6641 95.5453 17.0508 95.5453 16.3086C95.5453 15.0977 96.0141 14.1875 96.9516 13.5781C97.8969 12.9609 99.1586 12.6523 100.737 12.6523C101.549 12.6523 102.323 12.7344 103.057 12.8984C103.799 13.0625 104.561 13.3242 105.342 13.6836L104.264 16.2617C103.616 15.9805 103.002 15.75 102.424 15.5703C101.854 15.3906 101.272 15.3008 100.678 15.3008C100.155 15.3008 99.7602 15.3711 99.4945 15.5117C99.2289 15.6523 99.0961 15.8672 99.0961 16.1562C99.0961 16.3672 99.1625 16.5547 99.2953 16.7188C99.4359 16.8828 99.7016 17.0664 100.092 17.2695C100.491 17.4648 101.073 17.7188 101.838 18.0312C102.58 18.3359 103.225 18.6562 103.772 18.9922C104.319 19.3203 104.741 19.7305 105.037 20.2227C105.334 20.707 105.483 21.3359 105.483 22.1094ZM116.166 7.76562V11.4805C116.166 12.1289 116.143 12.7461 116.096 13.332C116.057 13.918 116.025 14.332 116.002 14.5742H116.19C116.471 14.1211 116.803 13.7539 117.186 13.4727C117.576 13.1914 118.006 12.9844 118.475 12.8516C118.943 12.7188 119.447 12.6523 119.986 12.6523C120.932 12.6523 121.756 12.8203 122.459 13.1562C123.162 13.4844 123.709 14.0039 124.1 14.7148C124.49 15.418 124.686 16.332 124.686 17.457V26H121.111V18.3477C121.111 17.4102 120.94 16.7031 120.596 16.2266C120.252 15.75 119.721 15.5117 119.002 15.5117C118.283 15.5117 117.717 15.6797 117.303 16.0156C116.889 16.3438 116.596 16.832 116.424 17.4805C116.252 18.1211 116.166 18.9062 116.166 19.8359V26H112.592V7.76562H116.166Z" fill="black"/>
</g>
<g filter="url(#filter1_d_0_1)">
<path d="M148.79 26H144.173L136.72 13.0391H136.614C136.645 13.5781 136.673 14.1211 136.696 14.668C136.72 15.2148 136.743 15.7617 136.766 16.3086C136.79 16.8477 136.813 17.3906 136.837 17.9375V26H133.591V8.86719H138.173L145.614 21.6992H145.696C145.68 21.168 145.661 20.6406 145.637 20.1172C145.614 19.5938 145.591 19.0703 145.567 18.5469C145.552 18.0234 145.536 17.5 145.52 16.9766V8.86719H148.79V26ZM162.28 12.6289C164.038 12.6289 165.385 13.0117 166.323 13.7773C167.26 14.543 167.729 15.707 167.729 17.2695V26H165.233L164.542 24.2188H164.448C164.073 24.6875 163.69 25.0703 163.3 25.3672C162.909 25.6641 162.46 25.8828 161.952 26.0234C161.444 26.1641 160.827 26.2344 160.1 26.2344C159.327 26.2344 158.632 26.0859 158.014 25.7891C157.405 25.4922 156.925 25.0391 156.573 24.4297C156.221 23.8125 156.046 23.0312 156.046 22.0859C156.046 20.6953 156.534 19.6719 157.51 19.0156C158.487 18.3516 159.952 17.9844 161.905 17.9141L164.178 17.8438V17.2695C164.178 16.582 163.999 16.0781 163.639 15.7578C163.28 15.4375 162.78 15.2773 162.139 15.2773C161.507 15.2773 160.885 15.3672 160.276 15.5469C159.667 15.7266 159.057 15.9531 158.448 16.2266L157.264 13.8125C157.96 13.4453 158.737 13.1562 159.596 12.9453C160.464 12.7344 161.358 12.6289 162.28 12.6289ZM164.178 19.9297L162.796 19.9766C161.639 20.0078 160.835 20.2148 160.382 20.5977C159.936 20.9805 159.714 21.4844 159.714 22.1094C159.714 22.6562 159.874 23.0469 160.194 23.2812C160.514 23.5078 160.932 23.6211 161.448 23.6211C162.214 23.6211 162.858 23.3945 163.382 22.9414C163.913 22.4883 164.178 21.8438 164.178 21.0078V19.9297ZM179.075 12.8984V26H175.501V12.8984H179.075ZM177.294 7.76562C177.825 7.76562 178.282 7.89063 178.665 8.14062C179.048 8.38281 179.239 8.83984 179.239 9.51172C179.239 10.1758 179.048 10.6367 178.665 10.8945C178.282 11.1445 177.825 11.2695 177.294 11.2695C176.755 11.2695 176.294 11.1445 175.911 10.8945C175.536 10.6367 175.348 10.1758 175.348 9.51172C175.348 8.83984 175.536 8.38281 175.911 8.14062C176.294 7.89063 176.755 7.76562 177.294 7.76562ZM190.491 7.76562V15.9219C190.491 16.4141 190.471 16.9062 190.432 17.3984C190.393 17.8906 190.35 18.3828 190.303 18.875H190.35C190.592 18.5312 190.838 18.1914 191.088 17.8555C191.346 17.5195 191.62 17.1953 191.909 16.8828L195.577 12.8984H199.608L194.405 18.582L199.924 26H195.799L192.026 20.6914L190.491 21.9219V26H186.917V7.76562H190.491Z" fill="#E9B949"/>
</g>
</g>
<defs>
<filter id="filter0_d_0_1" x="1.15625" y="6.76562" width="132.529" height="28.4688" filterUnits="userSpaceOnUse" color-interpolation-filters="sRGB">
<feFlood flood-opacity="0" result="BackgroundImageFix"/>
<feColorMatrix in="SourceAlpha" type="matrix" values="0 0 0 0 0 0 0 0 0 0 0 0 0 0 0 0 0 0 127 0" result="hardAlpha"/>
<feOffset dx="4" dy="4"/>
<feGaussianBlur stdDeviation="2.5"/>
<feComposite in2="hardAlpha" operator="out"/>
<feColorMatrix type="matrix" values="0 0 0 0 0 0 0 0 0 0 0 0 0 0 0 0 0 0 0.25 0"/>
<feBlend mode="normal" in2="BackgroundImageFix" result="effect1_dropShadow_0_1"/>
<feBlend mode="normal" in="SourceGraphic" in2="effect1_dropShadow_0_1" result="shape"/>
</filter>
<filter id="filter1_d_0_1" x="132.591" y="6.76562" width="76.3337" height="28.4688" filterUnits="userSpaceOnUse" color-interpolation-filters="sRGB">
<feFlood flood-opacity="0" result="BackgroundImageFix"/>
<feColorMatrix in="SourceAlpha" type="matrix" values="0 0 0 0 0 0 0 0 0 0 0 0 0 0 0 0 0 0 127 0" result="hardAlpha"/>
<feOffset dx="4" dy="4"/>
<feGaussianBlur stdDeviation="2.5"/>
<feComposite in2="hardAlpha" operator="out"/>
<feColorMatrix type="matrix" values="0 0 0 0 0 0 0 0 0 0 0 0 0 0 0 0 0 0 0.25 0"/>
<feBlend mode="normal" in2="BackgroundImageFix" result="effect1_dropShadow_0_1"/>
<feBlend mode="normal" in="SourceGraphic" in2="effect1_dropShadow_0_1" result="shape"/>
</filter>
<clipPath id="clip0_0_1">
<rect width="209" height="36" fill="white"/>
</clipPath>
</defs>
</svg>
